# xmcd
#
# Track frame offsets:
#	151
#	16237
#	30185
#	45835
#	63843
#	81162
#	99537
#	117430
#	135926
#	152894
#
# Disc length: 2347 seconds
#
# Revision: 1
# Processed by: cddbd v1.5.2PL0 Copyright (c) Steve Scherf et al.
# Submitted via: audiograbber 1.83.01
#
DISCID=6909290a
DTITLE=Amy McDonald - This is the life
DYEAR=2007
DGENRE=Music
TTITLE0=Mr. Rock&Roll
TTITLE1=This is the life
TTITLE2=Poison Prince
TTITLE3=Youth of today
TTITLE4=Run
TTITLE5=Let`s start a band
TTITLE6=Barrowland Ballroom
TTITLE7=L.A.
TTITLE8=A wish for something more
TTITLE9=Footballer`s wife
EXTD=
EXTT0=
EXTT1=
EXTT2=
EXTT3=
EXTT4=
EXTT5=
EXTT6=
EXTT7=
EXTT8=
EXTT9=
PLAYORDER=
